<svg xmlns="http://www.w3.org/2000/svg" viewBox="0 0 1800 1200">
  <g fill="#ffffff">
    <circle cx="98" cy="102" r="0.88" opacity="0.35"/>
    <circle cx="164" cy="388" r="0.72" opacity="0.22"/>
    <circle cx="226" cy="944" r="0.96" opacity="0.28"/>
    <circle cx="312" cy="186" r="0.64" opacity="0.18"/>
    <circle cx="354" cy="742" r="0.8" opacity="0.26"/>
    <circle cx="418" cy="532" r="1.04" opacity="0.30"/>
    <circle cx="492" cy="106" r="0.8" opacity="0.24"/>
    <circle cx="566" cy="298" r="0.72" opacity="0.20"/>
    <circle cx="612" cy="980" r="0.96" opacity="0.29"/>
    <circle cx="684" cy="640" r="0.8" opacity="0.23"/>
    <circle cx="744" cy="420" r="0.64" opacity="0.17"/>
    <circle cx="812" cy="112" r="0.88" opacity="0.25"/>
    <circle cx="874" cy="902" r="0.72" opacity="0.21"/>
    <circle cx="952" cy="252" r="1.04" opacity="0.31"/>
    <circle cx="1018" cy="560" r="0.8" opacity="0.22"/>
    <circle cx="1084" cy="1048" r="0.96" opacity="0.30"/>
    <circle cx="1148" cy="338" r="0.72" opacity="0.19"/>
    <circle cx="1216" cy="728" r="0.88" opacity="0.27"/>
    <circle cx="1288" cy="144" r="0.64" opacity="0.16"/>
    <circle cx="1362" cy="512" r="0.8" opacity="0.24"/>
    <circle cx="1428" cy="892" r="0.96" opacity="0.28"/>
    <circle cx="1502" cy="310" r="0.72" opacity="0.20"/>
    <circle cx="1568" cy="692" r="0.88" opacity="0.26"/>
    <circle cx="1642" cy="118" r="0.64" opacity="0.17"/>
    <circle cx="1712" cy="458" r="0.8" opacity="0.23"/>

    <circle cx="132" cy="702" r="0.72" opacity="0.20"/>
    <circle cx="188" cy="1122" r="0.96" opacity="0.29"/>
    <circle cx="268" cy="602" r="0.8" opacity="0.24"/>
    <circle cx="346" cy="1046" r="0.64" opacity="0.18"/>
    <circle cx="432" cy="860" r="0.88" opacity="0.27"/>
    <circle cx="508" cy="394" r="0.72" opacity="0.19"/>
    <circle cx="590" cy="1144" r="0.96" opacity="0.30"/>
    <circle cx="652" cy="204" r="0.64" opacity="0.16"/>
    <circle cx="724" cy="828" r="0.88" opacity="0.26"/>
    <circle cx="790" cy="530" r="0.72" opacity="0.20"/>
    <circle cx="862" cy="1088" r="0.96" opacity="0.29"/>
    <circle cx="940" cy="710" r="0.8" opacity="0.23"/>
    <circle cx="1026" cy="126" r="0.64" opacity="0.17"/>
    <circle cx="1102" cy="828" r="0.88" opacity="0.27"/>
    <circle cx="1178" cy="590" r="0.72" opacity="0.19"/>
    <circle cx="1252" cy="1094" r="0.96" opacity="0.30"/>
    <circle cx="1330" cy="374" r="0.8" opacity="0.22"/>
    <circle cx="1406" cy="1048" r="0.64" opacity="0.17"/>
    <circle cx="1492" cy="886" r="0.88" opacity="0.26"/>
    <circle cx="1566" cy="520" r="0.72" opacity="0.19"/>
    <circle cx="1650" cy="1110" r="0.96" opacity="0.29"/>
    <circle cx="1726" cy="764" r="0.8" opacity="0.23"/>

    <circle cx="74" cy="944" r="0.64" opacity="0.16"/>
    <circle cx="206" cy="202" r="0.8" opacity="0.22"/>
    <circle cx="292" cy="440" r="0.72" opacity="0.19"/>
    <circle cx="380" cy="42" r="0.88" opacity="0.25"/>
    <circle cx="458" cy="970" r="0.64" opacity="0.17"/>
    <circle cx="534" cy="654" r="0.8" opacity="0.23"/>
    <circle cx="606" cy="360" r="0.72" opacity="0.18"/>
    <circle cx="682" cy="1146" r="0.96" opacity="0.29"/>
    <circle cx="758" cy="50" r="0.64" opacity="0.16"/>
    <circle cx="836" cy="802" r="0.88" opacity="0.26"/>
    <circle cx="912" cy="512" r="0.72" opacity="0.19"/>
    <circle cx="988" cy="1160" r="0.96" opacity="0.30"/>
    <circle cx="1064" cy="44" r="0.64" opacity="0.16"/>
    <circle cx="1140" cy="710" r="0.8" opacity="0.23"/>
    <circle cx="1218" cy="438" r="0.72" opacity="0.19"/>
    <circle cx="1296" cy="1128" r="0.96" opacity="0.29"/>
    <circle cx="1372" cy="64" r="0.64" opacity="0.16"/>
    <circle cx="1448" cy="836" r="0.88" opacity="0.26"/>
    <circle cx="1524" cy="574" r="0.72" opacity="0.20"/>
    <circle cx="1600" cy="1152" r="0.96" opacity="0.30"/>
    <circle cx="1676" cy="74" r="0.64" opacity="0.16"/>
    <circle cx="1750" cy="888" r="0.8" opacity="0.24"/>
  </g>
</svg>

